%FSLAX34Y34*%
%MOMM*%
%LNCOPPER_BOTTOM*%
G71*
G01*
%ADD10C, 0.22*%
%ADD11C, 2.00*%
%ADD12C, 1.00*%
%ADD13C, 1.00*%
%LPD*%
G54D10*
X529231Y-133172D02*
X524564Y-128506D01*
X524564Y-140950D01*
G54D10*
X63918Y-144285D02*
X59252Y-139618D01*
X59252Y-152062D01*
G54D10*
X54818Y-149729D02*
X53885Y-151285D01*
X52018Y-152062D01*
X50152Y-152062D01*
X48285Y-151285D01*
X47352Y-149729D01*
X47352Y-145840D01*
X47352Y-145062D01*
X50152Y-146618D01*
X52018Y-146618D01*
X53885Y-145840D01*
X54818Y-144285D01*
X54818Y-141951D01*
X53885Y-140396D01*
X52018Y-139618D01*
X50152Y-139618D01*
X48285Y-140396D01*
X47352Y-141951D01*
X47352Y-145840D01*
G54D10*
X545106Y-388014D02*
X544173Y-386458D01*
X542306Y-385681D01*
X540439Y-385681D01*
X538573Y-386458D01*
X537639Y-388014D01*
X537639Y-389569D01*
X538573Y-391125D01*
X540439Y-391903D01*
X538573Y-392681D01*
X537639Y-394236D01*
X537639Y-395792D01*
X538573Y-397347D01*
X540439Y-398125D01*
X542306Y-398125D01*
X544173Y-397347D01*
X545106Y-395792D01*
G54D10*
X528539Y-391903D02*
X530406Y-391903D01*
X532273Y-391125D01*
X533206Y-389569D01*
X533206Y-388014D01*
X532273Y-386458D01*
X530406Y-385681D01*
X528539Y-385681D01*
X526673Y-386458D01*
X525739Y-388014D01*
X525739Y-389569D01*
X526673Y-391125D01*
X528539Y-391903D01*
X526673Y-392681D01*
X525739Y-394236D01*
X525739Y-395792D01*
X526673Y-397347D01*
X528539Y-398125D01*
X530406Y-398125D01*
X532273Y-397347D01*
X533206Y-395792D01*
X533206Y-394236D01*
X532273Y-392681D01*
X530406Y-391903D01*
G54D10*
X56627Y-355262D02*
X64094Y-355262D01*
X64094Y-354485D01*
X63160Y-352929D01*
X57560Y-348262D01*
X56627Y-346707D01*
X56627Y-345151D01*
X57560Y-343596D01*
X59427Y-342818D01*
X61294Y-342818D01*
X63160Y-343596D01*
X64094Y-345151D01*
G54D10*
X44727Y-345151D02*
X44727Y-352929D01*
X45660Y-354485D01*
X47527Y-355262D01*
X49394Y-355262D01*
X51260Y-354485D01*
X52194Y-352929D01*
X52194Y-345151D01*
X51260Y-343596D01*
X49394Y-342818D01*
X47527Y-342818D01*
X45660Y-343596D01*
X44727Y-345151D01*
X829606Y-457200D02*
G54D11*
D03*
X804206Y-457200D02*
G54D11*
D03*
X778806Y-457200D02*
G54D11*
D03*
X753406Y-457200D02*
G54D11*
D03*
X728006Y-457200D02*
G54D11*
D03*
X702606Y-457200D02*
G54D11*
D03*
X677206Y-457200D02*
G54D11*
D03*
X651806Y-457200D02*
G54D11*
D03*
X626406Y-457200D02*
G54D11*
D03*
X601006Y-457200D02*
G54D11*
D03*
G54D12*
X360500Y-377031D02*
X359706Y-342900D01*
X185081Y-342900D01*
G54D12*
X183494Y-122238D02*
X183494Y-342900D01*
G54D12*
X512106Y-377825D02*
X512106Y-407988D01*
X359706Y-407988D01*
X360500Y-377031D01*
G54D12*
X804206Y-457200D02*
X778806Y-457200D01*
G54D12*
X753406Y-457200D02*
X728006Y-457200D01*
G54D12*
X361294Y-122238D02*
X361294Y-152400D01*
X753406Y-152400D01*
X754062Y-407988D01*
X777874Y-433388D01*
X778806Y-457200D01*
G54D12*
X335894Y-120650D02*
X335894Y-169862D01*
X728006Y-171450D01*
X728006Y-457200D01*
G54D12*
X310494Y-122238D02*
X310494Y-190500D01*
X702606Y-190500D01*
X702606Y-457200D01*
G54D12*
X285094Y-122238D02*
X285094Y-209550D01*
X677206Y-209550D01*
X677206Y-457200D01*
G54D12*
X259694Y-122238D02*
X259694Y-228600D01*
X651806Y-228600D01*
X651806Y-457200D01*
G54D12*
X234294Y-120650D02*
X234294Y-247650D01*
X626406Y-247650D01*
X626406Y-457200D01*
G54D12*
X385900Y-377031D02*
X385106Y-325438D01*
G54D12*
X462100Y-378619D02*
X461306Y-350838D01*
X626406Y-457200D02*
G54D11*
D03*
G54D12*
X558144Y-376238D02*
X512106Y-376238D01*
X651806Y-101600D02*
G54D11*
D03*
X651806Y-76200D02*
G54D11*
D03*
X651806Y-50800D02*
G54D11*
D03*
X562906Y-120650D02*
G54D11*
D03*
G54D12*
X562906Y-114300D02*
X601006Y-76200D01*
X562906Y-114300D01*
X601006Y-76200D01*
X651806Y-76200D01*
X601006Y-76200D01*
X562906Y-114300D01*
X562906Y-114300D01*
G54D12*
X514487Y-121444D02*
X562906Y-120650D01*
G54D12*
X651806Y-50800D02*
X220006Y-50800D01*
X183494Y-88900D01*
X221594Y-50800D01*
X183494Y-88900D01*
X183494Y-120650D01*
X842306Y-50800D02*
G54D11*
D03*
X842306Y-101600D02*
G54D11*
D03*
X842306Y-76200D02*
G54D11*
D03*
G54D12*
X804206Y-50800D02*
X651806Y-50800D01*
G54D12*
X804206Y-76200D02*
X651806Y-76200D01*
G54D12*
X842306Y-76200D02*
X804206Y-50800D01*
X1299506Y-50800D02*
G54D11*
D03*
X1299506Y-76200D02*
G54D11*
D03*
X1299506Y-101600D02*
G54D11*
D03*
X1299506Y-127000D02*
G54D11*
D03*
X1299506Y-152400D02*
G54D11*
D03*
X1299506Y-177800D02*
G54D11*
D03*
X1299506Y-455612D02*
G54D11*
D03*
X1299506Y-430212D02*
G54D11*
D03*
X1299506Y-404812D02*
G54D11*
D03*
X1299506Y-379412D02*
G54D11*
D03*
G54D12*
X558144Y-350838D02*
X461306Y-350838D01*
G54D12*
X1299506Y-455612D02*
X829606Y-457200D01*
X1299506Y-354012D02*
G54D11*
D03*
G54D12*
X804206Y-76200D02*
X842306Y-101600D01*
G54D12*
X1299506Y-101600D02*
X1096306Y-101600D01*
X1070906Y-127000D01*
X1096306Y-101600D01*
X1070906Y-127000D01*
X829606Y-127000D01*
X829606Y-350838D01*
G54D12*
X1262994Y-319088D02*
X1299506Y-354012D01*
G54D12*
X1299506Y-379412D02*
X1236006Y-379412D01*
X1236006Y-101600D01*
G54D12*
X1299506Y-404812D02*
X1147106Y-406400D01*
G54D12*
X556556Y-325438D02*
X385106Y-325438D01*
X385106Y-325438D01*
X385106Y-338138D01*
G54D12*
X866118Y-325438D02*
X866118Y-406400D01*
X1299506Y-404812D01*
X562906Y-120600D02*
G54D11*
D03*
X562906Y-270600D02*
G54D11*
D03*
G54D12*
X601006Y-269875D02*
X562906Y-269875D01*
X106362Y-376206D02*
G54D11*
D03*
X107950Y-121444D02*
G54D11*
D03*
X131762Y-376206D02*
G54D11*
D03*
X133350Y-121444D02*
G54D11*
D03*
X157162Y-376206D02*
G54D11*
D03*
X158750Y-121444D02*
G54D11*
D03*
X182562Y-376206D02*
G54D11*
D03*
X184150Y-121444D02*
G54D11*
D03*
X207962Y-376206D02*
G54D11*
D03*
X209550Y-121444D02*
G54D11*
D03*
X233362Y-376206D02*
G54D11*
D03*
X234950Y-121444D02*
G54D11*
D03*
X258762Y-376206D02*
G54D11*
D03*
X260350Y-121444D02*
G54D11*
D03*
X284162Y-376206D02*
G54D11*
D03*
X284956Y-121444D02*
G54D11*
D03*
X308769Y-377000D02*
G54D11*
D03*
X310356Y-121444D02*
G54D11*
D03*
X334169Y-377000D02*
G54D11*
D03*
X335756Y-121444D02*
G54D11*
D03*
X359569Y-377000D02*
G54D11*
D03*
X361156Y-121444D02*
G54D11*
D03*
X384969Y-377000D02*
G54D11*
D03*
X386556Y-121444D02*
G54D11*
D03*
X410369Y-377000D02*
G54D11*
D03*
X411956Y-121444D02*
G54D11*
D03*
X435769Y-377000D02*
G54D11*
D03*
X437356Y-121444D02*
G54D11*
D03*
X461169Y-377794D02*
G54D11*
D03*
X462756Y-121444D02*
G54D11*
D03*
X82550Y-121444D02*
G54D11*
D03*
X57150Y-121444D02*
G54D11*
D03*
X488156Y-121444D02*
G54D11*
D03*
X513556Y-121444D02*
G54D11*
D03*
X485775Y-377000D02*
G54D11*
D03*
X511175Y-377000D02*
G54D11*
D03*
X81756Y-376206D02*
G54D11*
D03*
X56356Y-376206D02*
G54D11*
D03*
G54D12*
X830262Y-377825D02*
X830262Y-457200D01*
X806450Y-206375D02*
G54D11*
D03*
X806450Y-231775D02*
G54D11*
D03*
X806450Y-257175D02*
G54D11*
D03*
X806450Y-282575D02*
G54D11*
D03*
G54D12*
X806450Y-206375D02*
X806450Y-76200D01*
X1168400Y-431800D02*
G54D11*
D03*
X1168400Y-457200D02*
G54D11*
D03*
G54D12*
X1300163Y-127000D02*
X1333500Y-127000D01*
X1333500Y-406400D01*
G54D12*
X1300163Y-406400D02*
X1333500Y-406400D01*
G54D12*
X1262063Y-139700D02*
X1262063Y-317500D01*
X1262994Y-139700D02*
G54D13*
D03*
X903288Y-15875D02*
G54D11*
D03*
X1127125Y-15875D02*
G54D11*
D03*
X903287Y-481013D02*
G54D11*
D03*
X1125538Y-481012D02*
G54D11*
D03*
G54D12*
X601662Y-457200D02*
X601662Y-431800D01*
X601662Y-431800D02*
G54D11*
D03*
G54D12*
X131762Y-375443D02*
X131762Y-425450D01*
X547687Y-425450D01*
X601662Y-369887D01*
X601662Y-269874D01*
G54D12*
X842962Y-101600D02*
X1063624Y-101600D01*
X1089024Y-76200D01*
X1236662Y-76200D01*
X1262062Y-50800D01*
X1300162Y-50800D01*
X1262994Y-50800D02*
G54D13*
D03*
G54D12*
X842962Y-76200D02*
X1055687Y-76200D01*
X1081087Y-50800D01*
X1228724Y-50800D01*
X1252537Y-26987D01*
X1308100Y-26987D01*
X1325562Y-44450D01*
X1325562Y-76200D01*
X1300162Y-76200D01*
X1049337Y-34924D02*
G54D11*
D03*
X984250Y-34924D02*
G54D11*
D03*
G54D12*
X903287Y-15874D02*
X965200Y-15874D01*
X984250Y-34924D01*
G54D12*
X1127124Y-15874D02*
X1068387Y-15874D01*
X1049337Y-34924D01*
X1169331Y-169812D02*
G54D11*
D03*
X1169331Y-319812D02*
G54D11*
D03*
G54D12*
X903287Y-481013D02*
X903287Y-458787D01*
X903287Y-458787D02*
G54D11*
D03*
G54D12*
X158750Y-122238D02*
X158750Y-84138D01*
X214312Y-28576D01*
X808037Y-26988D01*
X841374Y-50800D01*
X557212Y-376238D02*
G54D11*
D03*
X830262Y-376238D02*
G54D11*
D03*
X830262Y-376238D02*
G54D11*
D03*
X557212Y-325438D02*
G54D11*
D03*
X557212Y-350838D02*
G54D11*
D03*
X830262Y-350838D02*
G54D11*
D03*
X866775Y-325438D02*
G54D11*
D03*
X601662Y-269875D02*
G54D11*
D03*
X601662Y-120650D02*
G54D11*
D03*
G54D12*
X601662Y-120650D02*
X620712Y-101600D01*
X650875Y-101600D01*
X736600Y-50800D02*
G54D11*
D03*
X736600Y-50800D02*
G54D11*
D03*
M02*
