; Drill file
; Format: 3.3 (000.000)
M48
METRIC
T01C0.8
T02C2.8
%
G05
G90
T01
X005760Y012510
X008300Y012510
X010760Y012510
X013300Y012510
X015840Y012510
X018380Y012510
X020920Y012510
X023460Y012510
X026000Y012510
X028540Y012510
X031000Y012430
X033540Y012430
X036080Y012430
X038620Y012430
X041160Y012430
X043700Y012430
X046240Y012350
X048700Y012430
X051240Y012430
X055850Y012510
X055850Y015050
X055850Y017590
X056420Y023070
X060290Y023140
X060290Y038070
X056420Y038070
X051480Y037990
X048940Y037990
X046400Y037990
X043860Y037990
X041320Y037990
X038780Y037990
X036240Y037990
X033700Y037990
X031160Y037990
X028620Y037990
X026160Y037990
X023620Y037990
X021080Y037990
X018540Y037990
X016000Y037990
X013460Y037990
X010920Y037990
X008380Y037990
X005840Y037990
X065310Y039970
X065310Y042510
X065310Y045050
X073780Y045050
X084360Y045050
X084360Y042510
X084360Y039970
X090450Y049180
X098550Y046640
X105060Y046640
X111570Y049180
X126420Y045050
X130080Y045050
X130080Y042510
X130080Y039970
X130080Y037430
X130080Y034890
X130080Y032350
X126420Y036160
X117060Y033150
X117060Y018150
X116960Y006950
X116960Y004410
X111410Y001400
X130080Y004570
X130080Y007110
X130080Y009650
X130080Y012190
X130080Y014730
X090450Y004250
X090450Y001390
X083090Y004410
X080550Y004410
X078010Y004410
X075470Y004410
X072930Y004410
X070390Y004410
X067850Y004410
X065310Y004410
X062770Y004410
X060230Y004410
X060290Y006950
X083150Y012510
X083150Y015050
X086800Y017590
X080770Y021870
X080770Y024410
X080770Y026950
X080770Y029490
T02
X003140Y002980
X002980Y047270
X134100Y047430
X134260Y002980
M30
