; Drill file
; Format: 3.3 (000.000)
M48
METRIC
T01C0.5
T02C0.8
T03C2.8
%
G05
G90
T01
X126300Y-013970
X126300Y-005080
T02
X005640Y-037620
X008180Y-037620
X010640Y-037620
X013180Y-037620
X015720Y-037620
X018260Y-037620
X020800Y-037620
X023340Y-037620
X025880Y-037620
X028420Y-037620
X030880Y-037700
X033420Y-037700
X035960Y-037700
X038500Y-037700
X041040Y-037700
X043580Y-037700
X046120Y-037780
X048580Y-037700
X051120Y-037700
X055720Y-037620
X055720Y-035080
X055720Y-032540
X056290Y-027060
X060170Y-026990
X060170Y-012060
X056290Y-012060
X051360Y-012140
X048820Y-012140
X046280Y-012140
X043740Y-012140
X041200Y-012140
X038660Y-012140
X036120Y-012140
X033580Y-012140
X031040Y-012140
X028500Y-012140
X026040Y-012140
X023500Y-012140
X020960Y-012140
X018420Y-012140
X015880Y-012140
X013340Y-012140
X010800Y-012140
X008260Y-012140
X005720Y-012140
X065180Y-010160
X065180Y-007620
X065180Y-005080
X073660Y-005080
X084230Y-005080
X084230Y-007620
X084230Y-010160
X090330Y-001590
X098420Y-003490
X104930Y-003490
X112710Y-001590
X116930Y-016980
X129950Y-017780
X129950Y-015240
X129950Y-012700
X129950Y-010160
X129950Y-007620
X129950Y-005080
X116930Y-031980
X116840Y-043180
X116840Y-045720
X112550Y-048100
X129950Y-045560
X129950Y-043020
X129950Y-040480
X129950Y-037940
X129950Y-035400
X090330Y-045880
X090330Y-048100
X082960Y-045720
X080420Y-045720
X077880Y-045720
X075340Y-045720
X072800Y-045720
X070260Y-045720
X067720Y-045720
X065180Y-045720
X062640Y-045720
X060100Y-045720
X060170Y-043180
X083030Y-037620
X083030Y-035080
X086680Y-032540
X080640Y-028260
X080640Y-025720
X080640Y-023180
X080640Y-020640
T03
X003020Y-047150
X002860Y-002860
X133980Y-002700
X134140Y-047150
M30
