%FSLAX34Y34*%
%MOMM*%
%LNSILK_TOP*%
G71*
G01*
%ADD10C, 0.20*%
%ADD11C, 0.11*%
%ADD12C, 0.33*%
%ADD13C, 0.50*%
%ADD14C, 0.22*%
%ADD15C, 0.27*%
%ADD16C, 0.17*%
%ADD17C, 0.00*%
%ADD18C, 0.15*%
%LPD*%
G54D10*
X552256Y322212D02*
X552256Y289212D01*
G54D10*
X576256Y322212D02*
X576256Y289212D01*
G54D10*
X578256Y340212D02*
X550256Y340212D01*
X550256Y322212D01*
X578256Y322212D01*
X578256Y340212D01*
G54D10*
X578256Y289212D02*
X550256Y289212D01*
X550256Y271212D01*
X578256Y271212D01*
X578256Y289212D01*
G54D10*
X564156Y230712D02*
X564156Y271312D01*
G54D10*
X564156Y340212D02*
X564156Y380712D01*
G54D11*
X42525Y409951D02*
X47858Y409951D01*
G54D11*
X45192Y412173D02*
X45192Y407729D01*
G54D11*
X55635Y414951D02*
X50302Y414951D01*
X50302Y411062D01*
X50969Y411062D01*
X52302Y411618D01*
X53635Y411618D01*
X54969Y411062D01*
X55635Y409951D01*
X55635Y407729D01*
X54969Y406618D01*
X53635Y406062D01*
X52302Y406062D01*
X50969Y406618D01*
X50302Y407729D01*
G54D11*
X172192Y410506D02*
X174858Y410506D01*
X174858Y407729D01*
X174192Y406618D01*
X172858Y406062D01*
X171525Y406062D01*
X170192Y406618D01*
X169525Y407729D01*
X169525Y413284D01*
X170192Y414395D01*
X171525Y414951D01*
X172858Y414951D01*
X174192Y414395D01*
X174858Y413284D01*
G54D11*
X177302Y406062D02*
X177302Y414951D01*
X182635Y406062D01*
X182635Y414951D01*
G54D11*
X188412Y406062D02*
X185079Y406062D01*
X185079Y414951D01*
X188412Y414951D01*
X189746Y414395D01*
X190412Y413284D01*
X190412Y407729D01*
X189746Y406618D01*
X188412Y406062D01*
G54D11*
X147458Y406062D02*
X144125Y406062D01*
X144125Y414951D01*
X147458Y414951D01*
X148792Y414395D01*
X149458Y413284D01*
X149458Y407729D01*
X148792Y406618D01*
X147458Y406062D01*
G54D11*
X151902Y411618D02*
X155235Y414951D01*
X155235Y406062D01*
G54D11*
X157679Y413284D02*
X158346Y414395D01*
X159679Y414951D01*
X161012Y414951D01*
X162346Y414395D01*
X163012Y413284D01*
X163012Y412173D01*
X162346Y411062D01*
X161012Y410506D01*
X162346Y409951D01*
X163012Y408840D01*
X163012Y407729D01*
X162346Y406618D01*
X161012Y406062D01*
X159679Y406062D01*
X158346Y406618D01*
X157679Y407729D01*
G54D11*
X223658Y406062D02*
X220325Y406062D01*
X220325Y414951D01*
X223658Y414951D01*
X224992Y414395D01*
X225658Y413284D01*
X225658Y407729D01*
X224992Y406618D01*
X223658Y406062D01*
G54D11*
X228102Y411618D02*
X231435Y414951D01*
X231435Y406062D01*
G54D11*
X237879Y406062D02*
X237879Y414951D01*
X233879Y409395D01*
X233879Y408284D01*
X239212Y408284D01*
G54D11*
X249058Y406062D02*
X245725Y406062D01*
X245725Y414951D01*
X249058Y414951D01*
X250392Y414395D01*
X251058Y413284D01*
X251058Y407729D01*
X250392Y406618D01*
X249058Y406062D01*
G54D11*
X258835Y406062D02*
X253502Y406062D01*
X253502Y406618D01*
X254169Y407729D01*
X258169Y411062D01*
X258835Y412173D01*
X258835Y413284D01*
X258169Y414395D01*
X256835Y414951D01*
X255502Y414951D01*
X254169Y414395D01*
X253502Y413284D01*
G54D11*
X261279Y414951D02*
X266612Y414951D01*
X265946Y413840D01*
X264612Y412173D01*
X263279Y409951D01*
X262612Y408284D01*
X262612Y406062D01*
G54D11*
X274458Y406062D02*
X271125Y406062D01*
X271125Y414951D01*
X274458Y414951D01*
X275792Y414395D01*
X276458Y413284D01*
X276458Y407729D01*
X275792Y406618D01*
X274458Y406062D01*
G54D11*
X284235Y406062D02*
X278902Y406062D01*
X278902Y406618D01*
X279569Y407729D01*
X283569Y411062D01*
X284235Y412173D01*
X284235Y413284D01*
X283569Y414395D01*
X282235Y414951D01*
X280902Y414951D01*
X279569Y414395D01*
X278902Y413284D01*
G54D11*
X292012Y413284D02*
X291346Y414395D01*
X290012Y414951D01*
X288679Y414951D01*
X287346Y414395D01*
X286679Y413284D01*
X286679Y410506D01*
X286679Y409951D01*
X288679Y411062D01*
X290012Y411062D01*
X291346Y410506D01*
X292012Y409395D01*
X292012Y407729D01*
X291346Y406618D01*
X290012Y406062D01*
X288679Y406062D01*
X287346Y406618D01*
X286679Y407729D01*
X286679Y410506D01*
G54D11*
X299858Y406062D02*
X296525Y406062D01*
X296525Y414951D01*
X299858Y414951D01*
X301192Y414395D01*
X301858Y413284D01*
X301858Y407729D01*
X301192Y406618D01*
X299858Y406062D01*
G54D11*
X309635Y406062D02*
X304302Y406062D01*
X304302Y406618D01*
X304969Y407729D01*
X308969Y411062D01*
X309635Y412173D01*
X309635Y413284D01*
X308969Y414395D01*
X307635Y414951D01*
X306302Y414951D01*
X304969Y414395D01*
X304302Y413284D01*
G54D11*
X317412Y414951D02*
X312079Y414951D01*
X312079Y411062D01*
X312746Y411062D01*
X314079Y411618D01*
X315412Y411618D01*
X316746Y411062D01*
X317412Y409951D01*
X317412Y407729D01*
X316746Y406618D01*
X315412Y406062D01*
X314079Y406062D01*
X312746Y406618D01*
X312079Y407729D01*
G54D11*
X325258Y406062D02*
X321925Y406062D01*
X321925Y414951D01*
X325258Y414951D01*
X326592Y414395D01*
X327258Y413284D01*
X327258Y407729D01*
X326592Y406618D01*
X325258Y406062D01*
G54D11*
X329702Y413284D02*
X330369Y414395D01*
X331702Y414951D01*
X333035Y414951D01*
X334369Y414395D01*
X335035Y413284D01*
X335035Y412173D01*
X334369Y411062D01*
X333035Y410506D01*
X334369Y409951D01*
X335035Y408840D01*
X335035Y407729D01*
X334369Y406618D01*
X333035Y406062D01*
X331702Y406062D01*
X330369Y406618D01*
X329702Y407729D01*
G54D11*
X337479Y413284D02*
X338146Y414395D01*
X339479Y414951D01*
X340812Y414951D01*
X342146Y414395D01*
X342812Y413284D01*
X342812Y412173D01*
X342146Y411062D01*
X340812Y410506D01*
X342146Y409951D01*
X342812Y408840D01*
X342812Y407729D01*
X342146Y406618D01*
X340812Y406062D01*
X339479Y406062D01*
X338146Y406618D01*
X337479Y407729D01*
G54D11*
X350658Y406062D02*
X347325Y406062D01*
X347325Y414951D01*
X350658Y414951D01*
X351992Y414395D01*
X352658Y413284D01*
X352658Y407729D01*
X351992Y406618D01*
X350658Y406062D01*
G54D11*
X355102Y413284D02*
X355769Y414395D01*
X357102Y414951D01*
X358435Y414951D01*
X359769Y414395D01*
X360435Y413284D01*
X360435Y412173D01*
X359769Y411062D01*
X358435Y410506D01*
X359769Y409951D01*
X360435Y408840D01*
X360435Y407729D01*
X359769Y406618D01*
X358435Y406062D01*
X357102Y406062D01*
X355769Y406618D01*
X355102Y407729D01*
G54D11*
X368212Y406062D02*
X362879Y406062D01*
X362879Y406618D01*
X363546Y407729D01*
X367546Y411062D01*
X368212Y412173D01*
X368212Y413284D01*
X367546Y414395D01*
X366212Y414951D01*
X364879Y414951D01*
X363546Y414395D01*
X362879Y413284D01*
G54D11*
X452258Y406062D02*
X448925Y406062D01*
X448925Y414951D01*
X452258Y414951D01*
X453592Y414395D01*
X454258Y413284D01*
X454258Y407729D01*
X453592Y406618D01*
X452258Y406062D01*
G54D11*
X456702Y413284D02*
X457369Y414395D01*
X458702Y414951D01*
X460035Y414951D01*
X461369Y414395D01*
X462035Y413284D01*
X462035Y412173D01*
X461369Y411062D01*
X460035Y410506D01*
X461369Y409951D01*
X462035Y408840D01*
X462035Y407729D01*
X461369Y406618D01*
X460035Y406062D01*
X458702Y406062D01*
X457369Y406618D01*
X456702Y407729D01*
G54D11*
X469812Y413284D02*
X469146Y414395D01*
X467812Y414951D01*
X466479Y414951D01*
X465146Y414395D01*
X464479Y413284D01*
X464479Y410506D01*
X464479Y409951D01*
X466479Y411062D01*
X467812Y411062D01*
X469146Y410506D01*
X469812Y409395D01*
X469812Y407729D01*
X469146Y406618D01*
X467812Y406062D01*
X466479Y406062D01*
X465146Y406618D01*
X464479Y407729D01*
X464479Y410506D01*
G54D11*
X499725Y409951D02*
X505058Y409951D01*
G54D11*
X502392Y412173D02*
X502392Y407729D01*
G54D11*
X507502Y413284D02*
X508169Y414395D01*
X509502Y414951D01*
X510835Y414951D01*
X512169Y414395D01*
X512835Y413284D01*
X512835Y412173D01*
X512169Y411062D01*
X510835Y410506D01*
X512169Y409951D01*
X512835Y408840D01*
X512835Y407729D01*
X512169Y406618D01*
X510835Y406062D01*
X509502Y406062D01*
X508169Y406618D01*
X507502Y407729D01*
G54D11*
X515812Y406506D02*
X515812Y406062D01*
X515279Y406062D01*
X515279Y406506D01*
X515812Y406506D01*
G54D11*
X515812Y406062D02*
X515279Y404951D01*
G54D11*
X518256Y413284D02*
X518923Y414395D01*
X520256Y414951D01*
X521589Y414951D01*
X522923Y414395D01*
X523589Y413284D01*
X523589Y412173D01*
X522923Y411062D01*
X521589Y410506D01*
X522923Y409951D01*
X523589Y408840D01*
X523589Y407729D01*
X522923Y406618D01*
X521589Y406062D01*
X520256Y406062D01*
X518923Y406618D01*
X518256Y407729D01*
G54D11*
X505567Y96181D02*
X508233Y96181D01*
X508233Y93404D01*
X507567Y92293D01*
X506233Y91737D01*
X504900Y91737D01*
X503567Y92293D01*
X502900Y93404D01*
X502900Y98959D01*
X503567Y100070D01*
X504900Y100626D01*
X506233Y100626D01*
X507567Y100070D01*
X508233Y98959D01*
G54D11*
X510677Y91737D02*
X510677Y100626D01*
X516010Y91737D01*
X516010Y100626D01*
G54D11*
X521787Y91737D02*
X518454Y91737D01*
X518454Y100626D01*
X521787Y100626D01*
X523121Y100070D01*
X523787Y98959D01*
X523787Y93404D01*
X523121Y92293D01*
X521787Y91737D01*
G54D11*
X125233Y91737D02*
X121900Y91737D01*
X121900Y100626D01*
X125233Y100626D01*
X126567Y100070D01*
X127233Y98959D01*
X127233Y93404D01*
X126567Y92293D01*
X125233Y91737D01*
G54D11*
X129677Y97293D02*
X133010Y100626D01*
X133010Y91737D01*
G54D11*
X140787Y100626D02*
X135454Y100626D01*
X135454Y96737D01*
X136121Y96737D01*
X137454Y97293D01*
X138787Y97293D01*
X140121Y96737D01*
X140787Y95626D01*
X140787Y93404D01*
X140121Y92293D01*
X138787Y91737D01*
X137454Y91737D01*
X136121Y92293D01*
X135454Y93404D01*
G54D11*
X379233Y91737D02*
X375900Y91737D01*
X375900Y100626D01*
X379233Y100626D01*
X380567Y100070D01*
X381233Y98959D01*
X381233Y93404D01*
X380567Y92293D01*
X379233Y91737D01*
G54D11*
X389010Y91737D02*
X383677Y91737D01*
X383677Y92293D01*
X384344Y93404D01*
X388344Y96737D01*
X389010Y97848D01*
X389010Y98959D01*
X388344Y100070D01*
X387010Y100626D01*
X385677Y100626D01*
X384344Y100070D01*
X383677Y98959D01*
G54D11*
X391454Y97293D02*
X394787Y100626D01*
X394787Y91737D01*
G54D11*
X455433Y91737D02*
X452100Y91737D01*
X452100Y100626D01*
X455433Y100626D01*
X456767Y100070D01*
X457433Y98959D01*
X457433Y93404D01*
X456767Y92293D01*
X455433Y91737D01*
G54D11*
X465210Y91737D02*
X459877Y91737D01*
X459877Y92293D01*
X460544Y93404D01*
X464544Y96737D01*
X465210Y97848D01*
X465210Y98959D01*
X464544Y100070D01*
X463210Y100626D01*
X461877Y100626D01*
X460544Y100070D01*
X459877Y98959D01*
G54D11*
X472987Y91737D02*
X467654Y91737D01*
X467654Y92293D01*
X468321Y93404D01*
X472321Y96737D01*
X472987Y97848D01*
X472987Y98959D01*
X472321Y100070D01*
X470987Y100626D01*
X469654Y100626D01*
X468321Y100070D01*
X467654Y98959D01*
G54D12*
X372725Y296812D02*
X372725Y310812D01*
X399392Y310812D01*
X399392Y296812D01*
G54D12*
X386058Y310812D02*
X386058Y296812D01*
G54D12*
X377725Y289479D02*
X374392Y287479D01*
X372725Y283479D01*
X372725Y279479D01*
X374392Y275479D01*
X377725Y273479D01*
X381058Y273479D01*
X384392Y275479D01*
X386058Y279479D01*
X386058Y283479D01*
X387725Y287479D01*
X391058Y289479D01*
X394392Y289479D01*
X397725Y287479D01*
X399392Y283479D01*
X399392Y279479D01*
X397725Y275479D01*
X394392Y273479D01*
G54D12*
X372725Y266146D02*
X399392Y266146D01*
X399392Y256146D01*
X397725Y252146D01*
X394392Y250146D01*
X391058Y250146D01*
X387725Y252146D01*
X386058Y256146D01*
X386058Y266146D01*
G54D12*
X394392Y242813D02*
X397725Y240813D01*
X399392Y236813D01*
X399392Y232813D01*
X397725Y228813D01*
X394392Y226813D01*
X391058Y226813D01*
X387725Y228813D01*
X386058Y232813D01*
X384392Y228813D01*
X381058Y226813D01*
X377725Y226813D01*
X374392Y228813D01*
X372725Y232813D01*
X372725Y236813D01*
X374392Y240813D01*
X377725Y242813D01*
G54D12*
X372725Y203480D02*
X372725Y219480D01*
X374392Y219480D01*
X377725Y217480D01*
X387725Y205480D01*
X391058Y203480D01*
X394392Y203480D01*
X397725Y205480D01*
X399392Y209480D01*
X399392Y213480D01*
X397725Y217480D01*
X394392Y219480D01*
G54D11*
X353167Y96181D02*
X355833Y96181D01*
X355833Y93404D01*
X355167Y92293D01*
X353833Y91737D01*
X352500Y91737D01*
X351167Y92293D01*
X350500Y93404D01*
X350500Y98959D01*
X351167Y100070D01*
X352500Y100626D01*
X353833Y100626D01*
X355167Y100070D01*
X355833Y98959D01*
G54D11*
X358277Y91737D02*
X358277Y100626D01*
X363610Y91737D01*
X363610Y100626D01*
G54D11*
X369387Y91737D02*
X366054Y91737D01*
X366054Y100626D01*
X369387Y100626D01*
X370721Y100070D01*
X371387Y98959D01*
X371387Y93404D01*
X370721Y92293D01*
X369387Y91737D01*
G54D13*
X36175Y107612D02*
X36175Y396537D01*
X531475Y396537D01*
X531475Y107612D01*
X36175Y107612D01*
G54D14*
X1356339Y135616D02*
X1356339Y130283D01*
X1350783Y130283D01*
X1348561Y131616D01*
X1347450Y134283D01*
X1347450Y136950D01*
X1348561Y139616D01*
X1350783Y140950D01*
X1361894Y140950D01*
X1364117Y139616D01*
X1365228Y136950D01*
X1365228Y134283D01*
X1364117Y131616D01*
X1361894Y130283D01*
G54D14*
X1365228Y125394D02*
X1356339Y118727D01*
X1347450Y118727D01*
G54D14*
X1356339Y118727D02*
X1365228Y112060D01*
G54D14*
X1355228Y107172D02*
X1355228Y96505D01*
G54D14*
X1361894Y91616D02*
X1364117Y90282D01*
X1365228Y87616D01*
X1365228Y84949D01*
X1364117Y82282D01*
X1361894Y80949D01*
X1359672Y80949D01*
X1357450Y82282D01*
X1356339Y84949D01*
X1355228Y82282D01*
X1353006Y80949D01*
X1350783Y80949D01*
X1348561Y82282D01*
X1347450Y84949D01*
X1347450Y87616D01*
X1348561Y90282D01*
X1350783Y91616D01*
G54D14*
X1364117Y66726D02*
X1361894Y65393D01*
X1350783Y65393D01*
X1348561Y66726D01*
X1347450Y69393D01*
X1347450Y72060D01*
X1348561Y74726D01*
X1350783Y76060D01*
X1361894Y76060D01*
X1364117Y74726D01*
X1365228Y72060D01*
X1365228Y69393D01*
X1364117Y66726D01*
G54D14*
X1334750Y424795D02*
X1334750Y431462D01*
X1352528Y431462D01*
X1352528Y424795D01*
X1351417Y422129D01*
X1349194Y420795D01*
X1346972Y420795D01*
X1344750Y422129D01*
X1343639Y424795D01*
X1342528Y422129D01*
X1340306Y420795D01*
X1338083Y420795D01*
X1335861Y422129D01*
X1334750Y424795D01*
G54D14*
X1343639Y431462D02*
X1343639Y424795D01*
G54D14*
X1334750Y415906D02*
X1352528Y415906D01*
X1341417Y409239D01*
X1352528Y402573D01*
X1334750Y402573D01*
G54D14*
X1334750Y388351D02*
X1334750Y397684D01*
X1352528Y397684D01*
X1352528Y388351D01*
G54D14*
X1343639Y397684D02*
X1343639Y388351D01*
G54D14*
X1334750Y372795D02*
X1334750Y383462D01*
X1335861Y383462D01*
X1338083Y382129D01*
X1344750Y374129D01*
X1346972Y372795D01*
X1349194Y372795D01*
X1351417Y374129D01*
X1352528Y376795D01*
X1352528Y379462D01*
X1351417Y382129D01*
X1349194Y383462D01*
G54D14*
X1344750Y358573D02*
X1343639Y361239D01*
X1343639Y363906D01*
X1344750Y366573D01*
X1346972Y367906D01*
X1349194Y367906D01*
X1351417Y366573D01*
X1352528Y363906D01*
X1352528Y361239D01*
X1351417Y358573D01*
X1349194Y357239D01*
X1346972Y357239D01*
X1344750Y358573D01*
G54D14*
X1343639Y361239D02*
X1342528Y358573D01*
X1340306Y357239D01*
X1338083Y357239D01*
X1335861Y358573D01*
X1334750Y361239D01*
X1334750Y363906D01*
X1335861Y366573D01*
X1338083Y367906D01*
X1340306Y367906D01*
X1342528Y366573D01*
X1343639Y363906D01*
G54D14*
X1351417Y343017D02*
X1349194Y341683D01*
X1338083Y341683D01*
X1335861Y343017D01*
X1334750Y345683D01*
X1334750Y348350D01*
X1335861Y351017D01*
X1338083Y352350D01*
X1349194Y352350D01*
X1351417Y351017D01*
X1352528Y348350D01*
X1352528Y345683D01*
X1351417Y343017D01*
G54D14*
X864850Y450195D02*
X864850Y456862D01*
X882628Y456862D01*
X882628Y450195D01*
X881517Y447529D01*
X879294Y446195D01*
X868183Y446195D01*
X865961Y447529D01*
X864850Y450195D01*
G54D14*
X864850Y441306D02*
X882628Y441306D01*
G54D14*
X864850Y430639D02*
X882628Y430639D01*
G54D14*
X873739Y441306D02*
X873739Y430639D01*
G54D14*
X864850Y420417D02*
X882628Y420417D01*
G54D14*
X882628Y425750D02*
X882628Y415083D01*
G54D14*
X864850Y399527D02*
X864850Y410194D01*
X865961Y410194D01*
X868183Y408861D01*
X874850Y400861D01*
X877072Y399527D01*
X879294Y399527D01*
X881517Y400861D01*
X882628Y403527D01*
X882628Y406194D01*
X881517Y408861D01*
X879294Y410194D01*
G54D14*
X864850Y383971D02*
X864850Y394638D01*
X865961Y394638D01*
X868183Y393305D01*
X874850Y385305D01*
X877072Y383971D01*
X879294Y383971D01*
X881517Y385305D01*
X882628Y387971D01*
X882628Y390638D01*
X881517Y393305D01*
X879294Y394638D01*
G54D14*
X674350Y462895D02*
X674350Y469562D01*
X692128Y469562D01*
X692128Y462895D01*
X691017Y460229D01*
X688794Y458895D01*
X677683Y458895D01*
X675461Y460229D01*
X674350Y462895D01*
G54D14*
X677683Y454006D02*
X675461Y452673D01*
X674350Y450006D01*
X674350Y447339D01*
X675461Y444673D01*
X677683Y443339D01*
X679906Y443339D01*
X682128Y444673D01*
X683239Y447339D01*
X683239Y450006D01*
X684350Y452673D01*
X686572Y454006D01*
X688794Y454006D01*
X691017Y452673D01*
X692128Y450006D01*
X692128Y447339D01*
X691017Y444673D01*
X688794Y443339D01*
G54D14*
X685461Y438450D02*
X692128Y431783D01*
X674350Y431783D01*
G54D14*
X684350Y417561D02*
X683239Y420227D01*
X683239Y422894D01*
X684350Y425561D01*
X686572Y426894D01*
X688794Y426894D01*
X691017Y425561D01*
X692128Y422894D01*
X692128Y420227D01*
X691017Y417561D01*
X688794Y416227D01*
X686572Y416227D01*
X684350Y417561D01*
G54D14*
X683239Y420227D02*
X682128Y417561D01*
X679906Y416227D01*
X677683Y416227D01*
X675461Y417561D01*
X674350Y420227D01*
X674350Y422894D01*
X675461Y425561D01*
X677683Y426894D01*
X679906Y426894D01*
X682128Y425561D01*
X683239Y422894D01*
G54D14*
X674350Y404671D02*
X674350Y411338D01*
X692128Y411338D01*
X692128Y404671D01*
X691017Y402005D01*
X688794Y400671D01*
X686572Y400671D01*
X684350Y402005D01*
X683239Y404671D01*
X682128Y402005D01*
X679906Y400671D01*
X677683Y400671D01*
X675461Y402005D01*
X674350Y404671D01*
G54D14*
X683239Y411338D02*
X683239Y404671D01*
G54D14*
X674350Y385115D02*
X674350Y395782D01*
X675461Y395782D01*
X677683Y394449D01*
X684350Y386449D01*
X686572Y385115D01*
X688794Y385115D01*
X691017Y386449D01*
X692128Y389115D01*
X692128Y391782D01*
X691017Y394449D01*
X688794Y395782D01*
G54D14*
X691017Y370893D02*
X688794Y369559D01*
X677683Y369559D01*
X675461Y370893D01*
X674350Y373559D01*
X674350Y376226D01*
X675461Y378893D01*
X677683Y380226D01*
X688794Y380226D01*
X691017Y378893D01*
X692128Y376226D01*
X692128Y373559D01*
X691017Y370893D01*
G54D15*
X576968Y18719D02*
X586035Y18719D01*
G54D15*
X581501Y22496D02*
X581501Y14941D01*
G54D15*
X600391Y27219D02*
X591324Y27219D01*
X591324Y20608D01*
X592457Y20608D01*
X594724Y21552D01*
X596991Y21552D01*
X599257Y20608D01*
X600391Y18719D01*
X600391Y14941D01*
X599257Y13052D01*
X596991Y12108D01*
X594724Y12108D01*
X592457Y13052D01*
X591324Y14941D01*
G54D15*
X630161Y20608D02*
X627895Y19663D01*
X625628Y19663D01*
X623361Y20608D01*
X622228Y22496D01*
X622228Y24385D01*
X623361Y26274D01*
X625628Y27219D01*
X627895Y27219D01*
X630161Y26274D01*
X631295Y24385D01*
X631295Y22496D01*
X630161Y20608D01*
G54D15*
X627895Y19663D02*
X630161Y18719D01*
X631295Y16830D01*
X631295Y14941D01*
X630161Y13052D01*
X627895Y12108D01*
X625628Y12108D01*
X623361Y13052D01*
X622228Y14941D01*
X622228Y16830D01*
X623361Y18719D01*
X625628Y19663D01*
G54D15*
X647616Y27219D02*
X656683Y27219D01*
X655549Y25330D01*
X653283Y22496D01*
X651016Y18719D01*
X649883Y15885D01*
X649883Y12108D01*
G54D15*
X682071Y24385D02*
X680937Y26274D01*
X678671Y27219D01*
X676404Y27219D01*
X674137Y26274D01*
X673004Y24385D01*
X673004Y19663D01*
X673004Y18719D01*
X676404Y20608D01*
X678671Y20608D01*
X680937Y19663D01*
X682071Y17774D01*
X682071Y14941D01*
X680937Y13052D01*
X678671Y12108D01*
X676404Y12108D01*
X674137Y13052D01*
X673004Y14941D01*
X673004Y19663D01*
G54D15*
X707459Y27219D02*
X698392Y27219D01*
X698392Y20608D01*
X699525Y20608D01*
X701792Y21552D01*
X704059Y21552D01*
X706325Y20608D01*
X707459Y18719D01*
X707459Y14941D01*
X706325Y13052D01*
X704059Y12108D01*
X701792Y12108D01*
X699525Y13052D01*
X698392Y14941D01*
G54D15*
X730580Y12108D02*
X730580Y27219D01*
X723780Y17774D01*
X723780Y15885D01*
X732847Y15885D01*
G54D15*
X749168Y24385D02*
X750301Y26274D01*
X752568Y27219D01*
X754835Y27219D01*
X757101Y26274D01*
X758235Y24385D01*
X758235Y22496D01*
X757101Y20608D01*
X754835Y19663D01*
X757101Y18719D01*
X758235Y16830D01*
X758235Y14941D01*
X757101Y13052D01*
X754835Y12108D01*
X752568Y12108D01*
X750301Y13052D01*
X749168Y14941D01*
G54D15*
X783623Y12108D02*
X774556Y12108D01*
X774556Y13052D01*
X775689Y14941D01*
X782489Y20608D01*
X783623Y22496D01*
X783623Y24385D01*
X782489Y26274D01*
X780223Y27219D01*
X777956Y27219D01*
X775689Y26274D01*
X774556Y24385D01*
G54D15*
X799944Y21552D02*
X805611Y27219D01*
X805611Y12108D01*
G54D15*
X831981Y19663D02*
X836515Y19663D01*
X836515Y14941D01*
X835381Y13052D01*
X833115Y12108D01*
X830848Y12108D01*
X828581Y13052D01*
X827448Y14941D01*
X827448Y24385D01*
X828581Y26274D01*
X830848Y27219D01*
X833115Y27219D01*
X835381Y26274D01*
X836515Y24385D01*
G54D15*
X841804Y12108D02*
X841804Y27219D01*
X850871Y12108D01*
X850871Y27219D01*
G54D15*
X861827Y12108D02*
X856160Y12108D01*
X856160Y27219D01*
X861827Y27219D01*
X864093Y26274D01*
X865227Y24385D01*
X865227Y14941D01*
X864093Y13052D01*
X861827Y12108D01*
G54D14*
X838974Y274300D02*
X837862Y271633D01*
X837862Y268966D01*
X838974Y266300D01*
X841196Y266300D01*
X842307Y267633D01*
X843418Y272966D01*
X844529Y274300D01*
X846751Y274300D01*
X847862Y271633D01*
X847862Y268966D01*
X846751Y266300D01*
G54D14*
X838307Y254744D02*
X840529Y253410D01*
X844974Y253410D01*
X847196Y254744D01*
X847862Y257410D01*
X847196Y260077D01*
X844974Y261410D01*
X840529Y261410D01*
X838307Y260077D01*
X837862Y257410D01*
X838307Y254744D01*
G54D14*
X837862Y248522D02*
X847862Y248522D01*
G54D14*
X851196Y248522D02*
X851196Y248522D01*
G54D14*
X837862Y243632D02*
X855640Y243632D01*
G54D16*
X1276265Y158412D02*
X1266488Y155968D01*
X1276265Y153523D01*
G54D16*
X1268321Y146190D02*
X1267099Y146679D01*
X1266488Y147656D01*
X1266488Y148634D01*
X1267099Y149612D01*
X1268321Y150101D01*
X1274432Y150101D01*
X1275654Y149612D01*
X1276265Y148634D01*
X1276265Y147656D01*
X1275654Y146679D01*
X1274432Y146190D01*
G54D16*
X1268321Y138857D02*
X1267099Y139346D01*
X1266488Y140324D01*
X1266488Y141301D01*
X1267099Y142279D01*
X1268321Y142768D01*
X1274432Y142768D01*
X1275654Y142279D01*
X1276265Y141301D01*
X1276265Y140324D01*
X1275654Y139346D01*
X1274432Y138857D01*
G54D16*
X1268321Y131915D02*
X1267099Y131426D01*
X1266488Y130448D01*
X1266488Y129470D01*
X1267099Y128493D01*
X1268321Y128004D01*
X1269543Y128004D01*
X1270765Y128493D01*
X1271376Y129470D01*
X1271376Y130448D01*
X1271988Y131426D01*
X1273210Y131915D01*
X1274432Y131915D01*
X1275654Y131426D01*
X1276265Y130448D01*
X1276265Y129470D01*
X1275654Y128493D01*
X1274432Y128004D01*
G54D16*
X1268321Y120671D02*
X1267099Y121160D01*
X1266488Y122138D01*
X1266488Y123115D01*
X1267099Y124093D01*
X1268321Y124582D01*
X1274432Y124582D01*
X1275654Y124093D01*
X1276265Y123115D01*
X1276265Y122138D01*
X1275654Y121160D01*
X1274432Y120671D01*
G54D16*
X1276265Y117249D02*
X1266488Y117249D01*
X1266488Y113827D01*
G54D16*
X1268321Y106885D02*
X1267099Y106396D01*
X1266488Y105418D01*
X1266488Y104440D01*
X1267099Y103463D01*
X1268321Y102974D01*
X1269543Y102974D01*
X1270765Y103463D01*
X1271376Y104440D01*
X1271376Y105418D01*
X1271988Y106396D01*
X1273210Y106885D01*
X1274432Y106885D01*
X1275654Y106396D01*
X1276265Y105418D01*
X1276265Y104440D01*
X1275654Y103463D01*
X1274432Y102974D01*
G54D16*
X1266488Y97108D02*
X1266488Y99552D01*
X1276265Y99552D01*
X1276265Y97108D01*
X1275654Y96130D01*
X1274432Y95641D01*
X1268321Y95641D01*
X1267099Y96130D01*
X1266488Y97108D01*
G54D16*
X1266488Y92219D02*
X1276265Y89774D01*
X1266488Y87330D01*
G54D16*
X1270154Y91241D02*
X1270154Y88308D01*
G54D16*
X1266488Y80388D02*
X1276265Y77944D01*
X1266488Y75499D01*
G54D16*
X1270154Y79410D02*
X1270154Y76477D01*
G54D16*
X1266488Y69632D02*
X1266488Y72077D01*
X1276265Y72077D01*
X1276265Y69632D01*
X1275654Y68655D01*
X1274432Y68166D01*
X1268321Y68166D01*
X1267099Y68655D01*
X1266488Y69632D01*
G54D16*
X1275654Y61322D02*
X1274432Y60833D01*
X1268321Y60833D01*
X1267099Y61322D01*
X1266488Y62300D01*
X1266488Y63277D01*
X1267099Y64255D01*
X1268321Y64744D01*
X1274432Y64744D01*
X1275654Y64255D01*
X1276265Y63277D01*
X1276265Y62300D01*
X1275654Y61322D01*
G54D16*
X1271376Y51936D02*
X1271376Y49980D01*
X1268321Y49980D01*
X1267099Y50469D01*
X1266488Y51446D01*
X1266488Y52424D01*
X1267099Y53402D01*
X1268321Y53891D01*
X1274432Y53891D01*
X1275654Y53402D01*
X1276265Y52424D01*
X1276265Y51446D01*
X1275654Y50469D01*
X1274432Y49980D01*
G54D16*
X1266488Y46558D02*
X1276265Y46558D01*
X1266488Y42647D01*
X1276265Y42647D01*
G54D16*
X1266488Y36780D02*
X1266488Y39225D01*
X1276265Y39225D01*
X1276265Y36780D01*
X1275654Y35803D01*
X1274432Y35314D01*
X1268321Y35314D01*
X1267099Y35803D01*
X1266488Y36780D01*
G54D16*
X1273090Y460037D02*
X1263312Y457592D01*
X1273090Y455148D01*
G54D16*
X1265146Y447815D02*
X1263924Y448304D01*
X1263312Y449282D01*
X1263312Y450259D01*
X1263924Y451237D01*
X1265146Y451726D01*
X1271257Y451726D01*
X1272479Y451237D01*
X1273090Y450259D01*
X1273090Y449282D01*
X1272479Y448304D01*
X1271257Y447815D01*
G54D16*
X1265146Y440482D02*
X1263924Y440971D01*
X1263312Y441948D01*
X1263312Y442926D01*
X1263924Y443904D01*
X1265146Y444393D01*
X1271257Y444393D01*
X1272479Y443904D01*
X1273090Y442926D01*
X1273090Y441948D01*
X1272479Y440971D01*
X1271257Y440482D01*
G54D16*
X1268201Y431584D02*
X1268201Y429629D01*
X1265146Y429629D01*
X1263924Y430118D01*
X1263312Y431096D01*
X1263312Y432073D01*
X1263924Y433051D01*
X1265146Y433540D01*
X1271257Y433540D01*
X1272479Y433051D01*
X1273090Y432073D01*
X1273090Y431096D01*
X1272479Y430118D01*
X1271257Y429629D01*
G54D16*
X1263312Y426207D02*
X1273090Y426207D01*
X1263312Y422296D01*
X1273090Y422296D01*
G54D16*
X1263312Y416430D02*
X1263312Y418874D01*
X1273090Y418874D01*
X1273090Y416430D01*
X1272479Y415452D01*
X1271257Y414963D01*
X1265146Y414963D01*
X1263924Y415452D01*
X1263312Y416430D01*
G54D16*
X1265146Y408021D02*
X1263924Y407532D01*
X1263312Y406554D01*
X1263312Y405576D01*
X1263924Y404599D01*
X1265146Y404110D01*
X1266368Y404110D01*
X1267590Y404599D01*
X1268201Y405576D01*
X1268201Y406554D01*
X1268812Y407532D01*
X1270035Y408021D01*
X1271257Y408021D01*
X1272479Y407532D01*
X1273090Y406554D01*
X1273090Y405576D01*
X1272479Y404599D01*
X1271257Y404110D01*
G54D16*
X1265146Y396777D02*
X1263924Y397266D01*
X1263312Y398244D01*
X1263312Y399221D01*
X1263924Y400199D01*
X1265146Y400688D01*
X1271257Y400688D01*
X1272479Y400199D01*
X1273090Y399221D01*
X1273090Y398244D01*
X1272479Y397266D01*
X1271257Y396777D01*
G54D16*
X1273090Y393355D02*
X1263312Y393355D01*
X1263312Y389933D01*
G54D16*
X1265146Y382991D02*
X1263924Y382502D01*
X1263312Y381524D01*
X1263312Y380546D01*
X1263924Y379569D01*
X1265146Y379080D01*
X1266368Y379080D01*
X1267590Y379569D01*
X1268201Y380546D01*
X1268201Y381524D01*
X1268812Y382502D01*
X1270035Y382991D01*
X1271257Y382991D01*
X1272479Y382502D01*
X1273090Y381524D01*
X1273090Y380546D01*
X1272479Y379569D01*
X1271257Y379080D01*
G54D16*
X1263312Y373214D02*
X1263312Y375658D01*
X1273090Y375658D01*
X1273090Y373214D01*
X1272479Y372236D01*
X1271257Y371747D01*
X1265146Y371747D01*
X1263924Y372236D01*
X1263312Y373214D01*
G54D16*
X1263312Y368325D02*
X1273090Y365880D01*
X1263312Y363436D01*
G54D16*
X1266979Y367347D02*
X1266979Y364414D01*
G54D16*
X1265146Y352583D02*
X1263924Y353072D01*
X1263312Y354050D01*
X1263312Y355027D01*
X1263924Y356005D01*
X1265146Y356494D01*
X1271257Y356494D01*
X1272479Y356005D01*
X1273090Y355027D01*
X1273090Y354050D01*
X1272479Y353072D01*
X1271257Y352583D01*
G54D16*
X1265146Y349161D02*
X1263924Y348672D01*
X1263312Y347694D01*
X1263312Y346716D01*
X1263924Y345739D01*
X1265146Y345250D01*
X1266368Y345250D01*
X1267590Y345739D01*
X1268201Y346716D01*
X1268201Y347694D01*
X1268812Y348672D01*
X1270035Y349161D01*
X1271257Y349161D01*
X1272479Y348672D01*
X1273090Y347694D01*
X1273090Y346716D01*
X1272479Y345739D01*
X1271257Y345250D01*
G54D16*
X1263312Y339384D02*
X1263312Y341828D01*
X1273090Y341828D01*
X1273090Y339384D01*
X1272479Y338406D01*
X1271257Y337917D01*
X1270035Y337917D01*
X1268812Y338406D01*
X1268201Y339384D01*
X1267590Y338406D01*
X1266368Y337917D01*
X1265146Y337917D01*
X1263924Y338406D01*
X1263312Y339384D01*
G54D16*
X1268201Y341828D02*
X1268201Y339384D01*
G54D16*
X1265146Y330975D02*
X1263924Y330486D01*
X1263312Y329508D01*
X1263312Y328530D01*
X1263924Y327553D01*
X1265146Y327064D01*
X1266368Y327064D01*
X1267590Y327553D01*
X1268201Y328530D01*
X1268201Y329508D01*
X1268812Y330486D01*
X1270035Y330975D01*
X1271257Y330975D01*
X1272479Y330486D01*
X1273090Y329508D01*
X1273090Y328530D01*
X1272479Y327553D01*
X1271257Y327064D01*
G54D16*
X1263312Y321198D02*
X1263312Y323642D01*
X1273090Y323642D01*
X1273090Y321198D01*
X1272479Y320220D01*
X1271257Y319731D01*
X1265146Y319731D01*
X1263924Y320220D01*
X1263312Y321198D01*
G54D16*
X1272479Y312887D02*
X1271257Y312398D01*
X1265146Y312398D01*
X1263924Y312887D01*
X1263312Y313864D01*
X1263312Y314842D01*
X1263924Y315820D01*
X1265146Y316309D01*
X1271257Y316309D01*
X1272479Y315820D01*
X1273090Y314842D01*
X1273090Y313864D01*
X1272479Y312887D01*
G54D16*
X821629Y455027D02*
X820407Y454538D01*
X814296Y454538D01*
X813074Y455027D01*
X812462Y456005D01*
X812462Y456983D01*
X813074Y457961D01*
X814296Y458450D01*
X820407Y458450D01*
X821629Y457961D01*
X822240Y456983D01*
X822240Y456005D01*
X821629Y455027D01*
G54D16*
X822240Y451116D02*
X814296Y451116D01*
X813074Y450628D01*
X812462Y449650D01*
X812462Y448672D01*
X813074Y447694D01*
X814296Y447205D01*
X822240Y447205D01*
G54D16*
X812462Y441828D02*
X822240Y441828D01*
G54D16*
X822240Y443784D02*
X822240Y439872D01*
G54D16*
X817351Y430975D02*
X817351Y429019D01*
X814296Y429019D01*
X813074Y429508D01*
X812462Y430486D01*
X812462Y431464D01*
X813074Y432442D01*
X814296Y432930D01*
X820407Y432930D01*
X821629Y432442D01*
X822240Y431464D01*
X822240Y430486D01*
X821629Y429508D01*
X820407Y429019D01*
G54D16*
X812462Y425598D02*
X822240Y425598D01*
X812462Y421686D01*
X822240Y421686D01*
G54D16*
X812462Y415820D02*
X812462Y418264D01*
X822240Y418264D01*
X822240Y415820D01*
X821629Y414842D01*
X820407Y414353D01*
X814296Y414353D01*
X813074Y414842D01*
X812462Y415820D01*
G54D16*
X822240Y407412D02*
X812462Y404967D01*
X822240Y402523D01*
G54D16*
X814296Y395189D02*
X813074Y395678D01*
X812462Y396656D01*
X812462Y397634D01*
X813074Y398612D01*
X814296Y399100D01*
X820407Y399100D01*
X821629Y398612D01*
X822240Y397634D01*
X822240Y396656D01*
X821629Y395678D01*
X820407Y395189D01*
G54D16*
X814296Y387856D02*
X813074Y388345D01*
X812462Y389323D01*
X812462Y390301D01*
X813074Y391279D01*
X814296Y391768D01*
X820407Y391768D01*
X821629Y391279D01*
X822240Y390301D01*
X822240Y389323D01*
X821629Y388345D01*
X820407Y387856D01*
G54D16*
X626851Y458081D02*
X626851Y456126D01*
X623796Y456126D01*
X622574Y456615D01*
X621962Y457593D01*
X621962Y458570D01*
X622574Y459548D01*
X623796Y460037D01*
X629907Y460037D01*
X631129Y459548D01*
X631740Y458570D01*
X631740Y457593D01*
X631129Y456615D01*
X629907Y456126D01*
G54D16*
X621962Y452704D02*
X631740Y452704D01*
X621962Y448793D01*
X631740Y448793D01*
G54D16*
X621962Y442927D02*
X621962Y445371D01*
X631740Y445371D01*
X631740Y442927D01*
X631129Y441949D01*
X629907Y441460D01*
X623796Y441460D01*
X622574Y441949D01*
X621962Y442927D01*
G54D16*
X631740Y434518D02*
X621962Y432074D01*
X631740Y429629D01*
G54D16*
X623796Y422296D02*
X622574Y422785D01*
X621962Y423763D01*
X621962Y424740D01*
X622574Y425718D01*
X623796Y426207D01*
X629907Y426207D01*
X631129Y425718D01*
X631740Y424740D01*
X631740Y423763D01*
X631129Y422785D01*
X629907Y422296D01*
G54D16*
X623796Y414963D02*
X622574Y415452D01*
X621962Y416430D01*
X621962Y417407D01*
X622574Y418385D01*
X623796Y418874D01*
X629907Y418874D01*
X631129Y418385D01*
X631740Y417407D01*
X631740Y416430D01*
X631129Y415452D01*
X629907Y414963D01*
G54D16*
X631129Y404599D02*
X629907Y404110D01*
X623796Y404110D01*
X622574Y404599D01*
X621962Y405577D01*
X621962Y406554D01*
X622574Y407532D01*
X623796Y408021D01*
X629907Y408021D01*
X631129Y407532D01*
X631740Y406554D01*
X631740Y405577D01*
X631129Y404599D01*
G54D16*
X631740Y400688D02*
X623796Y400688D01*
X622574Y400199D01*
X621962Y399221D01*
X621962Y398244D01*
X622574Y397266D01*
X623796Y396777D01*
X631740Y396777D01*
G54D16*
X621962Y391399D02*
X631740Y391399D01*
G54D16*
X631740Y393355D02*
X631740Y389444D01*
G54D16*
X777790Y298112D02*
X768012Y295668D01*
X777790Y293223D01*
G54D16*
X769846Y285890D02*
X768624Y286379D01*
X768012Y287357D01*
X768012Y288334D01*
X768624Y289312D01*
X769846Y289801D01*
X775957Y289801D01*
X777179Y289312D01*
X777790Y288334D01*
X777790Y287357D01*
X777179Y286379D01*
X775957Y285890D01*
G54D16*
X769846Y278557D02*
X768624Y279046D01*
X768012Y280024D01*
X768012Y281001D01*
X768624Y281979D01*
X769846Y282468D01*
X775957Y282468D01*
X777179Y281979D01*
X777790Y281001D01*
X777790Y280024D01*
X777179Y279046D01*
X775957Y278557D01*
G54D16*
X772901Y269659D02*
X772901Y267704D01*
X769846Y267704D01*
X768624Y268193D01*
X768012Y269171D01*
X768012Y270148D01*
X768624Y271126D01*
X769846Y271615D01*
X775957Y271615D01*
X777179Y271126D01*
X777790Y270148D01*
X777790Y269171D01*
X777179Y268193D01*
X775957Y267704D01*
G54D16*
X768012Y264282D02*
X777790Y264282D01*
X768012Y260371D01*
X777790Y260371D01*
G54D16*
X768012Y254505D02*
X768012Y256949D01*
X777790Y256949D01*
X777790Y254505D01*
X777179Y253527D01*
X775957Y253038D01*
X769846Y253038D01*
X768624Y253527D01*
X768012Y254505D01*
G54D16*
X768012Y243652D02*
X768012Y246096D01*
X777790Y246096D01*
X777790Y243652D01*
X777179Y242674D01*
X775957Y242185D01*
X769846Y242185D01*
X768624Y242674D01*
X768012Y243652D01*
G54D16*
X777179Y235341D02*
X775957Y234852D01*
X769846Y234852D01*
X768624Y235341D01*
X768012Y236319D01*
X768012Y237296D01*
X768624Y238274D01*
X769846Y238763D01*
X775957Y238763D01*
X777179Y238274D01*
X777790Y237296D01*
X777790Y236319D01*
X777179Y235341D01*
G54D16*
X768012Y227910D02*
X777790Y225466D01*
X768012Y223021D01*
G54D16*
X771679Y226932D02*
X771679Y223999D01*
G54D16*
X777179Y216177D02*
X775957Y215688D01*
X769846Y215688D01*
X768624Y216177D01*
X768012Y217155D01*
X768012Y218132D01*
X768624Y219110D01*
X769846Y219599D01*
X775957Y219599D01*
X777179Y219110D01*
X777790Y218132D01*
X777790Y217155D01*
X777179Y216177D01*
G54D13*
X788650Y202862D02*
X788650Y310812D01*
X826750Y310812D01*
X826750Y202862D01*
X788650Y202862D01*
G54D13*
X829925Y380662D02*
X829925Y466387D01*
X858500Y466387D01*
X858500Y380662D01*
X829925Y380662D01*
G54D13*
X639425Y383837D02*
X639425Y466387D01*
X668000Y466387D01*
X668000Y383837D01*
X639425Y383837D01*
G54D13*
X1287125Y304462D02*
X1287125Y463212D01*
X1315700Y463212D01*
X1315700Y304462D01*
X1287125Y304462D01*
G54D13*
X1283950Y26650D02*
X1283950Y163174D01*
X1315700Y163174D01*
X1315700Y26650D01*
X1283950Y26650D01*
G54D17*
X928350Y69512D02*
X928350Y69512D01*
X928350Y69512D01*
G54D10*
G75*
G01X1193950Y55812D02*
G03X1193950Y55812I-24000J0D01*
G01*
G54D10*
X1156950Y35812D02*
X1181450Y35812D01*
G54D18*
X1160650Y62312D02*
X1170650Y52312D01*
G54D10*
X1169850Y50912D02*
X1169850Y43912D01*
G54D18*
X1169850Y53312D02*
X1178850Y62312D01*
G54D10*
X1160850Y62312D02*
X1178850Y62312D01*
G54D10*
X1160850Y52312D02*
X1178350Y52312D01*
G54D10*
X1169650Y69512D02*
X1169650Y62812D01*
G54D13*
X895012Y4424D02*
X895012Y499724D01*
X1123612Y499724D01*
X1123612Y4424D01*
X895012Y4424D01*
G54D16*
X1079812Y43912D02*
X1080812Y42245D01*
X1080812Y33912D01*
X1079812Y32245D01*
X1077812Y31412D01*
X1075812Y31412D01*
X1073812Y32245D01*
X1072812Y33912D01*
X1072812Y42245D01*
X1073812Y43912D01*
X1075812Y44745D01*
X1077812Y44745D01*
X1079812Y43912D01*
G54D16*
X1084480Y44745D02*
X1084480Y33912D01*
X1085480Y32245D01*
X1087480Y31412D01*
X1089480Y31412D01*
X1091480Y32245D01*
X1092480Y33912D01*
X1092480Y44745D01*
G54D16*
X1100146Y31412D02*
X1100146Y44745D01*
G54D16*
X1096146Y44745D02*
X1104146Y44745D01*
G54D16*
X1111680Y37245D02*
X1119680Y37245D01*
G54D16*
X1115680Y40579D02*
X1115680Y33912D01*
G54D16*
X940112Y45500D02*
X941112Y43833D01*
X941112Y35500D01*
X940112Y33833D01*
X938112Y33000D01*
X936112Y33000D01*
X934112Y33833D01*
X933112Y35500D01*
X933112Y43833D01*
X934112Y45500D01*
X936112Y46333D01*
X938112Y46333D01*
X940112Y45500D01*
G54D16*
X944780Y46333D02*
X944780Y35500D01*
X945780Y33833D01*
X947780Y33000D01*
X949780Y33000D01*
X951780Y33833D01*
X952780Y35500D01*
X952780Y46333D01*
G54D16*
X960446Y33000D02*
X960446Y46333D01*
G54D16*
X956446Y46333D02*
X964446Y46333D01*
G54D16*
X971980Y38833D02*
X979980Y38833D01*
G54D16*
X1072812Y469562D02*
X1080812Y469562D01*
G54D16*
X1076812Y469562D02*
X1076812Y482895D01*
G54D16*
X1072812Y482895D02*
X1080812Y482895D01*
G54D16*
X1084480Y469562D02*
X1084480Y482895D01*
X1092480Y469562D01*
X1092480Y482895D01*
G54D16*
X1100014Y475395D02*
X1108014Y475395D01*
G54D16*
X1104014Y478729D02*
X1104014Y472062D01*
G54D16*
X926762Y469562D02*
X934762Y469562D01*
G54D16*
X930762Y469562D02*
X930762Y482895D01*
G54D16*
X926762Y482895D02*
X934762Y482895D01*
G54D16*
X938430Y469562D02*
X938430Y482895D01*
X946430Y469562D01*
X946430Y482895D01*
G54D16*
X953964Y475395D02*
X961964Y475395D01*
G54D14*
X1008866Y445750D02*
X998200Y445750D01*
X998200Y446861D01*
X999533Y449083D01*
X1007533Y455750D01*
X1008866Y457972D01*
X1008866Y460194D01*
X1007533Y462417D01*
X1004866Y463528D01*
X1002200Y463528D01*
X999533Y462417D01*
X998200Y460194D01*
G54D14*
X1021756Y445750D02*
X1021756Y463528D01*
X1013756Y452417D01*
X1013756Y450194D01*
X1024422Y450194D01*
G54D14*
X1029312Y455750D02*
X1034645Y445750D01*
X1039978Y455750D01*
G54D14*
X1010454Y33315D02*
X999787Y33315D01*
X999787Y25538D01*
X1001120Y25538D01*
X1003787Y26649D01*
X1006454Y26649D01*
X1009120Y25538D01*
X1010454Y23315D01*
X1010454Y18871D01*
X1009120Y16649D01*
X1006454Y15538D01*
X1003787Y15538D01*
X1001120Y16649D01*
X999787Y18871D01*
G54D14*
X1020499Y25538D02*
X1025832Y15538D01*
X1031166Y25538D01*
G54D10*
X1158681Y273000D02*
X1158681Y240000D01*
G54D10*
X1182681Y273000D02*
X1182681Y240000D01*
G54D10*
X1184681Y291000D02*
X1156681Y291000D01*
X1156681Y273000D01*
X1184681Y273000D01*
X1184681Y291000D01*
G54D10*
X1184681Y240000D02*
X1156681Y240000D01*
X1156681Y222000D01*
X1184681Y222000D01*
X1184681Y240000D01*
G54D10*
X1170581Y181500D02*
X1170581Y222100D01*
G54D10*
X1170581Y291000D02*
X1170581Y331500D01*
G54D12*
X117137Y30062D02*
X119137Y26729D01*
X123137Y25062D01*
X127137Y25062D01*
X131137Y26729D01*
X133137Y30062D01*
X133137Y33396D01*
X131137Y36729D01*
X127137Y38396D01*
X123137Y38396D01*
X119137Y40062D01*
X117137Y43396D01*
X117137Y46729D01*
X119137Y50062D01*
X123137Y51729D01*
X127137Y51729D01*
X131137Y50062D01*
X133137Y46729D01*
G54D12*
X140470Y25062D02*
X140470Y51729D01*
X150470Y35062D01*
X160470Y51729D01*
X160470Y25062D01*
G54D12*
X167803Y25062D02*
X177803Y51729D01*
X187803Y25062D01*
G54D12*
X171803Y35062D02*
X183803Y35062D01*
G54D12*
X203136Y38396D02*
X209136Y35062D01*
X211136Y31729D01*
X211136Y25062D01*
G54D12*
X195136Y25062D02*
X195136Y51729D01*
X205136Y51729D01*
X209136Y50062D01*
X211136Y46729D01*
X211136Y43396D01*
X209136Y40062D01*
X205136Y38396D01*
X195136Y38396D01*
G54D12*
X226469Y25062D02*
X226469Y51729D01*
G54D12*
X218469Y51729D02*
X234469Y51729D01*
G54D12*
X257535Y38396D02*
X265535Y38396D01*
X265535Y30062D01*
X263535Y26729D01*
X259535Y25062D01*
X255535Y25062D01*
X251535Y26729D01*
X249535Y30062D01*
X249535Y46729D01*
X251535Y50062D01*
X255535Y51729D01*
X259535Y51729D01*
X263535Y50062D01*
X265535Y46729D01*
G54D12*
X280868Y38396D02*
X286868Y35062D01*
X288868Y31729D01*
X288868Y25062D01*
G54D12*
X272868Y25062D02*
X272868Y51729D01*
X282868Y51729D01*
X286868Y50062D01*
X288868Y46729D01*
X288868Y43396D01*
X286868Y40062D01*
X282868Y38396D01*
X272868Y38396D01*
G54D12*
X310201Y25062D02*
X296201Y25062D01*
X296201Y51729D01*
X310201Y51729D01*
G54D12*
X296201Y38396D02*
X310201Y38396D01*
G54D12*
X331534Y25062D02*
X317534Y25062D01*
X317534Y51729D01*
X331534Y51729D01*
G54D12*
X317534Y38396D02*
X331534Y38396D01*
G54D12*
X338867Y25062D02*
X338867Y51729D01*
X354867Y25062D01*
X354867Y51729D01*
G54D12*
X362200Y25062D02*
X362200Y51729D01*
G54D12*
X378200Y25062D02*
X378200Y51729D01*
G54D12*
X362200Y38396D02*
X378200Y38396D01*
G54D12*
X399533Y50062D02*
X401533Y46729D01*
X401533Y30062D01*
X399533Y26729D01*
X395533Y25062D01*
X391533Y25062D01*
X387533Y26729D01*
X385533Y30062D01*
X385533Y46729D01*
X387533Y50062D01*
X391533Y51729D01*
X395533Y51729D01*
X399533Y50062D01*
G54D12*
X408866Y51729D02*
X408866Y30062D01*
X410866Y26729D01*
X414866Y25062D01*
X418866Y25062D01*
X422866Y26729D01*
X424866Y30062D01*
X424866Y51729D01*
G54D12*
X432199Y30062D02*
X434199Y26729D01*
X438199Y25062D01*
X442199Y25062D01*
X446199Y26729D01*
X448199Y30062D01*
X448199Y33396D01*
X446199Y36729D01*
X442199Y38396D01*
X438199Y38396D01*
X434199Y40062D01*
X432199Y43396D01*
X432199Y46729D01*
X434199Y50062D01*
X438199Y51729D01*
X442199Y51729D01*
X446199Y50062D01*
X448199Y46729D01*
G54D12*
X469532Y25062D02*
X455532Y25062D01*
X455532Y51729D01*
X469532Y51729D01*
G54D12*
X455532Y38396D02*
X469532Y38396D01*
G54D11*
X156983Y91737D02*
X153650Y91737D01*
X153650Y100626D01*
X156983Y100626D01*
X158317Y100070D01*
X158983Y98959D01*
X158983Y93404D01*
X158317Y92293D01*
X156983Y91737D01*
G54D11*
X166760Y91737D02*
X161427Y91737D01*
X161427Y92293D01*
X162094Y93404D01*
X166094Y96737D01*
X166760Y97848D01*
X166760Y98959D01*
X166094Y100070D01*
X164760Y100626D01*
X163427Y100626D01*
X162094Y100070D01*
X161427Y98959D01*
M02*
