%FSLAX34Y34*%
%MOMM*%
%LNSOLDERMASK_BOTTOM*%
G71*
G01*
%ADD10C, 2.20*%
%LPD*%
X107612Y125106D02*
G54D10*
D03*
X109200Y379868D02*
G54D10*
D03*
X133012Y125106D02*
G54D10*
D03*
X134600Y379868D02*
G54D10*
D03*
X158412Y125106D02*
G54D10*
D03*
X160000Y379868D02*
G54D10*
D03*
X183812Y125106D02*
G54D10*
D03*
X185400Y379868D02*
G54D10*
D03*
X209212Y125106D02*
G54D10*
D03*
X210800Y379868D02*
G54D10*
D03*
X234612Y125106D02*
G54D10*
D03*
X236200Y379868D02*
G54D10*
D03*
X260012Y125106D02*
G54D10*
D03*
X261600Y379868D02*
G54D10*
D03*
X285412Y125106D02*
G54D10*
D03*
X286206Y379868D02*
G54D10*
D03*
X310019Y124312D02*
G54D10*
D03*
X311606Y379868D02*
G54D10*
D03*
X335419Y124312D02*
G54D10*
D03*
X337006Y379868D02*
G54D10*
D03*
X360819Y124312D02*
G54D10*
D03*
X362406Y379868D02*
G54D10*
D03*
X386219Y124312D02*
G54D10*
D03*
X387806Y379868D02*
G54D10*
D03*
X411619Y124312D02*
G54D10*
D03*
X413206Y379868D02*
G54D10*
D03*
X437019Y124312D02*
G54D10*
D03*
X438606Y379868D02*
G54D10*
D03*
X462419Y123518D02*
G54D10*
D03*
X464006Y379868D02*
G54D10*
D03*
X83800Y379868D02*
G54D10*
D03*
X58400Y379868D02*
G54D10*
D03*
X489406Y379868D02*
G54D10*
D03*
X514806Y379868D02*
G54D10*
D03*
X487025Y124312D02*
G54D10*
D03*
X512425Y124312D02*
G54D10*
D03*
X83006Y125106D02*
G54D10*
D03*
X57606Y125106D02*
G54D10*
D03*
X807700Y294937D02*
G54D10*
D03*
X807700Y269537D02*
G54D10*
D03*
X807700Y244137D02*
G54D10*
D03*
X807700Y218737D02*
G54D10*
D03*
X1169650Y69512D02*
G54D10*
D03*
X1169650Y44112D02*
G54D10*
D03*
X1264240Y361610D02*
G54D10*
D03*
X904538Y491787D02*
G54D10*
D03*
X1115675Y491787D02*
G54D10*
D03*
X904537Y13949D02*
G54D10*
D03*
X1114088Y13950D02*
G54D10*
D03*
X602912Y69512D02*
G54D10*
D03*
X1264240Y450510D02*
G54D10*
D03*
X1170581Y331500D02*
G54D10*
D03*
X1170581Y181500D02*
G54D10*
D03*
X904537Y42525D02*
G54D10*
D03*
X558462Y125074D02*
G54D10*
D03*
X831512Y125074D02*
G54D10*
D03*
X558462Y175874D02*
G54D10*
D03*
X558462Y150474D02*
G54D10*
D03*
X831512Y150474D02*
G54D10*
D03*
X868025Y175874D02*
G54D10*
D03*
X602912Y231437D02*
G54D10*
D03*
X602912Y380662D02*
G54D10*
D03*
X737850Y450512D02*
G54D10*
D03*
X830856Y44112D02*
G54D10*
D03*
X805456Y44112D02*
G54D10*
D03*
X780056Y44112D02*
G54D10*
D03*
X754656Y44112D02*
G54D10*
D03*
X729256Y44112D02*
G54D10*
D03*
X703856Y44112D02*
G54D10*
D03*
X678456Y44112D02*
G54D10*
D03*
X653056Y44112D02*
G54D10*
D03*
X627656Y44112D02*
G54D10*
D03*
X602256Y44112D02*
G54D10*
D03*
X627656Y44112D02*
G54D10*
D03*
X653056Y399712D02*
G54D10*
D03*
X653056Y425112D02*
G54D10*
D03*
X653056Y450512D02*
G54D10*
D03*
X564156Y380662D02*
G54D10*
D03*
X843556Y450512D02*
G54D10*
D03*
X843556Y399712D02*
G54D10*
D03*
X843556Y425112D02*
G54D10*
D03*
X1300756Y450512D02*
G54D10*
D03*
X1300756Y425112D02*
G54D10*
D03*
X1300756Y399712D02*
G54D10*
D03*
X1300756Y374312D02*
G54D10*
D03*
X1300756Y348912D02*
G54D10*
D03*
X1300756Y323512D02*
G54D10*
D03*
X1300756Y45700D02*
G54D10*
D03*
X1300756Y71100D02*
G54D10*
D03*
X1300756Y96500D02*
G54D10*
D03*
X1300756Y121900D02*
G54D10*
D03*
X1300756Y147300D02*
G54D10*
D03*
X564156Y380712D02*
G54D10*
D03*
X564156Y230712D02*
G54D10*
D03*
X1050587Y466388D02*
G54D10*
D03*
X985500Y466388D02*
G54D10*
D03*
M02*
