%FSLAX34Y34*%
%MOMM*%
%LNSOLDERMASK_TOP*%
G71*
G01*
%ADD10C, 2.20*%
%LPD*%
X106362Y-376206D02*
G54D10*
D03*
X107950Y-121444D02*
G54D10*
D03*
X131762Y-376206D02*
G54D10*
D03*
X133350Y-121444D02*
G54D10*
D03*
X157162Y-376206D02*
G54D10*
D03*
X158750Y-121444D02*
G54D10*
D03*
X182562Y-376206D02*
G54D10*
D03*
X184150Y-121444D02*
G54D10*
D03*
X207962Y-376206D02*
G54D10*
D03*
X209550Y-121444D02*
G54D10*
D03*
X233362Y-376206D02*
G54D10*
D03*
X234950Y-121444D02*
G54D10*
D03*
X258762Y-376206D02*
G54D10*
D03*
X260350Y-121444D02*
G54D10*
D03*
X284162Y-376206D02*
G54D10*
D03*
X284956Y-121444D02*
G54D10*
D03*
X308769Y-377000D02*
G54D10*
D03*
X310356Y-121444D02*
G54D10*
D03*
X334169Y-377000D02*
G54D10*
D03*
X335756Y-121444D02*
G54D10*
D03*
X359569Y-377000D02*
G54D10*
D03*
X361156Y-121444D02*
G54D10*
D03*
X384969Y-377000D02*
G54D10*
D03*
X386556Y-121444D02*
G54D10*
D03*
X410369Y-377000D02*
G54D10*
D03*
X411956Y-121444D02*
G54D10*
D03*
X435769Y-377000D02*
G54D10*
D03*
X437356Y-121444D02*
G54D10*
D03*
X461169Y-377794D02*
G54D10*
D03*
X462756Y-121444D02*
G54D10*
D03*
X82550Y-121444D02*
G54D10*
D03*
X57150Y-121444D02*
G54D10*
D03*
X488156Y-121444D02*
G54D10*
D03*
X513556Y-121444D02*
G54D10*
D03*
X485775Y-377000D02*
G54D10*
D03*
X511175Y-377000D02*
G54D10*
D03*
X81756Y-376206D02*
G54D10*
D03*
X56356Y-376206D02*
G54D10*
D03*
X806450Y-206375D02*
G54D10*
D03*
X806450Y-231775D02*
G54D10*
D03*
X806450Y-257175D02*
G54D10*
D03*
X806450Y-282575D02*
G54D10*
D03*
X1168400Y-431800D02*
G54D10*
D03*
X1168400Y-457200D02*
G54D10*
D03*
X903288Y-15875D02*
G54D10*
D03*
X1127125Y-15875D02*
G54D10*
D03*
X903287Y-481013D02*
G54D10*
D03*
X1125538Y-481012D02*
G54D10*
D03*
X601662Y-431800D02*
G54D10*
D03*
X1169331Y-169812D02*
G54D10*
D03*
X1169331Y-319812D02*
G54D10*
D03*
X903287Y-458787D02*
G54D10*
D03*
X557212Y-376238D02*
G54D10*
D03*
X830262Y-376238D02*
G54D10*
D03*
X830262Y-376238D02*
G54D10*
D03*
X557212Y-325438D02*
G54D10*
D03*
X557212Y-350838D02*
G54D10*
D03*
X830262Y-350838D02*
G54D10*
D03*
X866775Y-325438D02*
G54D10*
D03*
X601662Y-269875D02*
G54D10*
D03*
X601662Y-120650D02*
G54D10*
D03*
X736600Y-50800D02*
G54D10*
D03*
X736600Y-50800D02*
G54D10*
D03*
M02*
